<svg xmlns="http://www.w3.org/2000/svg" width="16.777" height="16.777" viewBox="80.858 928.611 16.777 16.777"><g data-name="Layer 3"><path d="M89.247 928.611A8.389 8.389 0 1 0 97.635 937a8.398 8.398 0 0 0-8.388-8.389Zm0 15.66a7.27 7.27 0 1 1 7.27-7.271 7.279 7.279 0 0 1-7.27 7.27Z" fill-rule="evenodd" data-name="Path 691"/><path d="M90.365 940.355h-.56v-5.033a.56.56 0 0 0-.558-.559h-1.119a.56.56 0 1 0 0 1.119h.56v4.473h-.56a.56.56 0 1 0 0 1.119h2.237a.56.56 0 0 0 0-1.119Z" fill-rule="evenodd" data-name="Path 692"/><path d="M88.425 933.308a.821.821 0 1 1 0 .1z" fill-rule="evenodd" data-name="Ellipse 109"/></g></svg>