<svg xmlns="http://www.w3.org/2000/svg" width="17.231" height="16.625" viewBox="0.3 8.8 17.231 16.625"><g data-name="Path 693"><path d="M2.528 20.427h-.07A1.958 1.958 0 0 1 .5 18.47v-1.52a1.958 1.958 0 0 1 1.958-1.959h.684v-.016a5.974 5.974 0 0 1 11.947 0v.016h.684a1.958 1.958 0 0 1 1.958 1.958v1.521a1.958 1.958 0 0 1-1.958 1.958h-.949a.341.341 0 0 1-.34-.341v-5.112a5.368 5.368 0 1 0-10.736 0v5.112a.341.341 0 0 1-.342.341h-.272a3.493 3.493 0 0 0 3.493 3.465h.586a1.43 1.43 0 0 1 1.398-1.128h1.01a1.43 1.43 0 0 1 0 2.86H8.61a1.43 1.43 0 0 1-1.399-1.126h-.585a4.099 4.099 0 0 1-4.1-4.07Zm7.917 3.768a.825.825 0 0 0-.825-.825H8.61a.824.824 0 1 0 0 1.65h1.01c.455 0 .825-.37.825-.825Zm-7.303-8.599h-.684a1.352 1.352 0 0 0-1.352 1.352v1.521a1.352 1.352 0 0 0 1.352 1.352h.684v-4.225Zm11.947 0v4.225h.684a1.352 1.352 0 0 0 1.352-1.352v-1.52a1.352 1.352 0 0 0-1.352-1.353h-.684Z" fill-rule="evenodd"/><path d="M2.528 20.427h-.07A1.958 1.958 0 0 1 .5 18.47v-1.52a1.958 1.958 0 0 1 1.958-1.959h.684v-.016a5.974 5.974 0 0 1 11.947 0v.016h.684a1.958 1.958 0 0 1 1.958 1.958v1.521a1.958 1.958 0 0 1-1.958 1.958h-.949a.341.341 0 0 1-.34-.341v-5.112a5.368 5.368 0 1 0-10.736 0v5.112a.341.341 0 0 1-.342.341h-.272a3.493 3.493 0 0 0 3.493 3.465h.586a1.43 1.43 0 0 1 1.398-1.128h1.01a1.43 1.43 0 0 1 0 2.86H8.61a1.43 1.43 0 0 1-1.399-1.126h-.585a4.099 4.099 0 0 1-4.1-4.07Zm7.917 3.768a.825.825 0 0 0-.825-.825H8.61a.824.824 0 1 0 0 1.65h1.01c.455 0 .825-.37.825-.825Zm-7.303-8.599h-.684a1.352 1.352 0 0 0-1.352 1.352v1.521a1.352 1.352 0 0 0 1.352 1.352h.684v-4.225Zm11.947 0v4.225h.684a1.352 1.352 0 0 0 1.352-1.352v-1.52a1.352 1.352 0 0 0-1.352-1.353h-.684Z" stroke-linejoin="round" stroke-linecap="round" stroke-width=".4" stroke="#000" fill="transparent"/></g></svg>