<svg xmlns="http://www.w3.org/2000/svg" width="33.306" height="33.306" viewBox="197 1266.727 33.306 33.306"><g data-name="facebook"><path d="M230.306 1283.38c0 8.312-6.09 15.201-14.05 16.45v-11.637h3.88l.738-4.813h-4.619v-3.124c0-1.317.645-2.6 2.714-2.6h2.1v-4.1s-1.906-.324-3.728-.324c-3.804 0-6.29 2.305-6.29 6.479v3.669h-4.228v4.813h4.228v11.637c-7.96-1.249-14.051-8.138-14.051-16.45 0-9.197 7.456-16.653 16.653-16.653s16.653 7.456 16.653 16.653Z" fill="#1877f2" fill-rule="evenodd" data-name="Path 699"/><path d="m220.135 1288.193.739-4.813h-4.619v-3.124c0-1.317.645-2.6 2.714-2.6h2.1v-4.1s-1.906-.324-3.728-.324c-3.804 0-6.29 2.305-6.29 6.479v3.669h-4.228v4.813h4.228v11.637a16.778 16.778 0 0 0 5.204 0v-11.637h3.88Z" fill="#fff" fill-rule="evenodd" data-name="Path 700"/></g></svg>