<svg xmlns="http://www.w3.org/2000/svg" width="33" height="33" viewBox="138 1266.95 33 33"><g data-name="instagram"><path d="M0 16.4a16.5 16.5 0 1 1 0 .1z" fill-rule="evenodd" fill="url(&quot;#a&quot;)" transform="translate(138 1267)" data-name="Ellipse 111"/><g data-name="Group 685"><path d="M158.062 1274.243h-7.084a5.73 5.73 0 0 0-5.727 5.727v7.085a5.73 5.73 0 0 0 5.727 5.727h7.084a5.73 5.73 0 0 0 5.727-5.727v-7.085a5.73 5.73 0 0 0-5.727-5.727Zm3.658 12.82a3.668 3.668 0 0 1-3.665 3.664h-7.085a3.668 3.668 0 0 1-3.664-3.665v-7.084a3.668 3.668 0 0 1 3.664-3.665h7.085a3.668 3.668 0 0 1 3.665 3.665v7.084Z" fill="#fff" fill-rule="evenodd" data-name="Path 702"/><path d="M154.516 1278.776a4.749 4.749 0 0 0-4.74 4.74 4.75 4.75 0 0 0 4.74 4.74 4.75 4.75 0 0 0 4.74-4.74 4.75 4.75 0 0 0-4.74-4.74Zm0 7.619a2.881 2.881 0 0 1-2.878-2.879 2.881 2.881 0 0 1 2.878-2.878 2.881 2.881 0 0 1 2.879 2.878 2.881 2.881 0 0 1-2.879 2.879Z" fill="#fff" fill-rule="evenodd" data-name="Path 703"/><path d="M158.683 1278.534a.801.801 0 1 1 .016.1z" fill="#fff" fill-rule="evenodd" data-name="Ellipse 112"/></g></g><defs><linearGradient x1=".119" y1=".881" x2=".83" y2=".17" id="a"><stop stop-color="#fee411" offset="0"/><stop stop-color="#fedb16" offset=".052"/><stop stop-color="#fec125" offset=".138"/><stop stop-color="#fe983d" offset=".248"/><stop stop-color="#fe5f5e" offset=".376"/><stop stop-color="#fe2181" offset=".5"/><stop stop-color="#9000dc" offset="1"/></linearGradient></defs></svg>