<svg xmlns="http://www.w3.org/2000/svg" width="33.306" height="33.306" viewBox="256.748 1266.677 33.306 33.306"><g data-name="linkedin"><path d="M256.748 1283.28a16.653 16.653 0 1 1 0 .1z" fill="#007ab9" fill-rule="evenodd" data-name="Ellipse 110"/><g data-name="Group 684"><path d="M283.351 1284.72v6.865h-3.98v-6.405c0-1.609-.575-2.707-2.016-2.707-1.1 0-1.754.74-2.042 1.456-.105.255-.132.61-.132.97v6.686h-3.98s.053-10.849 0-11.972h3.98v1.697c-.008.013-.019.026-.026.039h.026v-.04c.53-.813 1.473-1.977 3.588-1.977 2.619 0 4.582 1.711 4.582 5.388Zm-16.315-10.878c-1.362 0-2.253.894-2.253 2.068 0 1.15.865 2.07 2.2 2.07h.027c1.388 0 2.251-.92 2.251-2.07-.026-1.174-.863-2.068-2.225-2.068Zm-2.016 17.743H269v-11.972h-3.98v11.972Z" fill="#f1f2f2" fill-rule="evenodd" data-name="Path 701"/></g></g></svg>