<svg xmlns="http://www.w3.org/2000/svg" width="13.874" height="15.444" viewBox="81.813 777.278 13.874 15.444"><g data-name="Icon"><path d="M89.887 777.597a2.184 2.184 0 0 0-2.274 0l-1.311.802a.987.987 0 0 1-.323.127l-2.413.482a2.18 2.18 0 0 0-1.753 2.138v2.924a8.892 8.892 0 0 0 6.736 8.627c.132.033.27.033.402 0a8.892 8.892 0 0 0 6.736-8.627v-2.924a2.18 2.18 0 0 0-1.753-2.138l-2.413-.482a.987.987 0 0 1-.323-.127l-1.311-.802ZM88.75 791.52a7.702 7.702 0 0 0 5.748-7.45v-2.924a.992.992 0 0 0-.797-.972l-2.413-.483a2.164 2.164 0 0 1-.71-.277l-1.311-.802a.993.993 0 0 0-1.034 0l-1.311.802a2.164 2.164 0 0 1-.71.277c-.493.1-1.555.312-2.413.483a.992.992 0 0 0-.797.972v2.924a7.702 7.702 0 0 0 5.748 7.45Z" fill-rule="evenodd" data-name="Path 684"/><path d="m87.957 785.752 2.751-2.75a.594.594 0 1 1 .84.84l-3.17 3.171a.594.594 0 0 1-.841 0l-1.19-1.189a.594.594 0 1 1 .841-.84l.77.768Z" fill-rule="evenodd" data-name="Path 685"/></g></svg>