<svg xmlns="http://www.w3.org/2000/svg" width="19.239" height="23.572" viewBox="71.107 546.709 19.239 23.572"><g data-name="Group 491"><g data-name="Group 495"><path d="M77.599 570.28h-.69c-.74-.196-1.354-.599-1.871-1.15-.961-1.026-1.736-2.181-2.372-3.433a14.598 14.598 0 0 1-1.45-4.745c-.157-1.196-.168-2.389.126-3.565.456-1.822 1.386-3.315 3.067-4.255 1.088-.608 2.253-.867 3.479-.564.688.17 1.357.43 2.019.687.61.238 1.193.284 1.804.013.398-.177.817-.306 1.227-.456 1.975-.72 3.842-.503 5.586.67.486.327.873.76 1.19 1.273-1.773 1.126-2.663 2.694-2.512 4.814.151 2.124 1.28 3.547 3.144 4.441-.02.076-.03.12-.045.164-.628 1.823-1.63 3.428-2.874 4.885-.851.997-1.922 1.43-3.229 1.075a14.024 14.024 0 0 1-1.367-.472c-.954-.37-1.92-.453-2.902-.143-.78.245-1.554.507-2.33.762Z" fill-rule="evenodd" data-name="Path 528"/><path d="M85.422 546.71c.08.89-.046 1.733-.434 2.519-.56 1.134-1.344 2.067-2.515 2.616-.553.26-1.142.332-1.748.283-.323-2.445 1.813-5.16 4.697-5.419Z" fill-rule="evenodd" data-name="Path 529"/></g></g></svg>