<svg xmlns="http://www.w3.org/2000/svg" width="21.544" height="16.142" viewBox="69.537 477.832 21.544 16.142"><g data-name="Group 490"><g data-name="Group 492"><path d="M69.537 492.256v-9.886c.032.013.066.023.094.041l8.743 5.83c1.27.848 2.587.854 3.851.012 2.88-1.918 5.759-3.839 8.638-5.758.062-.041.125-.08.214-.136v.171c0 3.141.001 6.282-.003 9.423 0 .173-.02.351-.063.519-.232.924-1.014 1.5-2.027 1.501-2.867.002-5.734 0-8.602 0-2.916 0-5.833 0-8.75.002-.57 0-1.072-.168-1.492-.565-.333-.316-.5-.718-.603-1.154Z" fill-rule="evenodd" data-name="Path 534"/><path d="M69.537 479.551c.035-.12.065-.241.105-.36.275-.816 1.012-1.342 1.907-1.356.413-.006.827-.001 1.24-.001 5.392 0 10.784.001 16.175-.001.628 0 1.172.187 1.598.66.804.893.66 2.227-.333 2.902-1.31.89-2.633 1.76-3.95 2.639l-4.704 3.136c-.902.6-1.632.6-2.532 0-2.764-1.842-5.522-3.692-8.294-5.52-.592-.39-1.066-.832-1.212-1.552v-.547Z" fill-rule="evenodd" data-name="Path 535"/></g></g></svg>