<svg xmlns="http://www.w3.org/2000/svg" width="11.834" height="22.812" viewBox="74.959 460.216 11.834 22.812"><g data-name="Group 494"><path d="M84.842 460.216c.383.03.767.059 1.15.09.265.022.53.047.801.071v3.629h-.311c-.765.011-1.531 0-2.294.04-.95.052-1.475.553-1.518 1.5-.044.993-.01 1.99-.01 3.018h4l-.525 4.067H82.65v10.397h-4.193V472.64h-3.499v-4.06h3.495v-.287c.005-1.062-.022-2.126.022-3.187.052-1.279.43-2.452 1.332-3.408.686-.727 1.542-1.143 2.51-1.344.26-.053.524-.092.785-.138h1.739Z" fill-rule="evenodd" data-name="Path 537"/></g></svg>