<svg xmlns="http://www.w3.org/2000/svg" width="19.601" height="19.656" viewBox="71.107 373.724 19.601 19.656"><g data-name="Group 493"><path d="M71.119 384.13c-.038-.645.02-1.276.102-1.913.044-.34.091-.679.177-1.01.774-2.983 2.548-5.167 5.303-6.524 1.826-.9 3.765-1.14 5.77-.83 1.07.166 2.09.51 3.04 1.035.465.258.904.563 1.368.855l-2.284 2.978c-2.603-1.965-5.825-1.384-7.657.232a6.099 6.099 0 0 0-1.588 7.038c1.116 2.534 3.717 3.974 6.436 3.58 2.563-.373 4.337-2.318 4.853-4.147h-5.727v-3.734h9.796c-.023.963.009 1.919-.08 2.864-.197 2.084-1.008 3.923-2.394 5.492-1.514 1.714-3.4 2.782-5.65 3.184-2.28.407-4.7-.013-6.68-1.231-2.756-1.696-4.596-4.599-4.785-7.87Z" fill-rule="evenodd" data-name="Path 536"/></g></svg>