<svg xmlns="http://www.w3.org/2000/svg" width="18.75" height="24.596" viewBox="70.688 562.443 18.75 24.596"><g data-name="Group 496"><path d="M80.58 562.443c.506.11 1.025.181 1.516.34 2.6.834 4.404 3.295 4.437 6.027.01.896.002 1.792.002 2.724-.931-.34-1.877-.444-2.88-.388v-.269c0-.648.002-1.296-.001-1.944-.01-1.885-1.404-3.408-3.287-3.597-1.8-.181-3.484 1.083-3.848 2.9-.05.249-.063.508-.066.763-.009.703-.003 1.406-.003 2.152-.494 0-.974-.032-1.447.01-.474.041-.942.157-1.435.244v-.244c.013-.968-.037-1.941.05-2.902.253-2.804 2.325-5.087 5.082-5.671.272-.058.549-.097.824-.145h1.057Z" fill-rule="evenodd" data-name="Path 538"/><path d="M79.9 572.577c1.465 0 2.93-.002 4.395 0 2.556.006 4.605 1.7 5.049 4.218.208 1.18.053 2.357-.318 3.482-1.218 3.7-3.74 5.99-7.59 6.635-4.137.692-8.028-1.48-9.788-5.303a10.19 10.19 0 0 1-.96-4.368c.015-2.536 2.09-4.633 4.627-4.66 1.528-.015 3.057-.002 4.585-.002v-.002Zm.873 7.084.226-.11a2.137 2.137 0 0 0 1.173-2.33 2.16 2.16 0 0 0-2.031-1.759 2.174 2.174 0 0 0-2.191 1.656 2.131 2.131 0 0 0 1.172 2.434c.161.075.216.156.215.336a288.2 288.2 0 0 0-.003 3.529c.002.425.321.739.725.735.394-.004.701-.314.712-.725.006-.24.002-.48.002-.72v-3.046Z" fill-rule="evenodd" data-name="Path 539"/><path d="M80.771 577.655c-.02.39-.359.7-.747.685a.729.729 0 0 1-.69-.765.73.73 0 0 1 .758-.673.73.73 0 0 1 .68.753Z" fill-rule="evenodd" data-name="Path 540"/></g></svg>