<svg xmlns="http://www.w3.org/2000/svg" width="215.823" height="76.455" viewBox="41.581 423.967 215.823 76.455"><g data-name="Group 690"><g data-name="Group 687"><g data-name="Group 686" transform="translate(101.7 430.693)" clip-path="url(&quot;#a&quot;)"><path d="M0 0h59.81v69.249H0V0z" fill-rule="evenodd" fill="url(&quot;#b&quot;)" transform="rotate(-7.491 .844 112.581)" data-name="Rectangle 445"/></g></g><g data-name="Group 689"><g data-name="Group 706"><path d="M101.831 475.327a2.285 2.285 0 0 1-.412-.323c-.04-.04-.068-.09-.105-.132-.4-.465-.61-1.074-.61-1.844v-13.912a6.413 6.413 0 0 0-6.414-6.413v4.523c-2.557-3.473-5.974-5.21-10.248-5.21-4.123 0-7.548 1.46-10.277 4.38-2.73 2.919-4.094 6.555-4.094 10.907 0 4.35 1.364 7.986 4.094 10.907 2.729 2.92 6.154 4.38 10.277 4.38 2.39 0 4.497-.554 6.34-1.624 1.602-.93 3.006-2.248 4.195-3.987.84 3.283 3.34 4.924 7.501 4.924h1.56a6.754 6.754 0 0 0 .234-1.737c0-1.897-.783-3.61-2.04-4.839m-23-1.526c-1.717-1.736-2.577-3.903-2.577-6.498s.86-4.761 2.577-6.499c1.717-1.736 3.874-2.605 6.47-2.605 2.556 0 4.694.869 6.413 2.605 1.717 1.738 2.575 3.904 2.575 6.499 0 2.595-.858 4.762-2.575 6.498-1.719 1.738-3.857 2.605-6.414 2.605-2.595 0-4.752-.867-6.47-2.605" fill="#87c500" fill-rule="evenodd" data-name="Path 705"/><path d="M68.061 465.629a9.642 9.642 0 0 0-1.17-1.639c-1.592-1.807-3.982-3.25-7.167-4.328a33.163 33.163 0 0 0-2.926-.833 28.537 28.537 0 0 1-1.905-.496c-2.076-.622-3.632-1.398-4.67-2.326a5.336 5.336 0 0 1-.761-.834 4.001 4.001 0 0 1-.794-2.413c0-.544.085-1.05.257-1.52a4.04 4.04 0 0 1 .773-1.293c.23-.263.496-.508.803-.738.304-.229.627-.429.968-.6 1.023-.516 2.208-.773 3.555-.773.935 0 1.793.131 2.576.393a6.515 6.515 0 0 1 2.118 1.181c.499.415.898.87 1.199 1.366.1.165.19.335.268.509.137.305.314.585.52.834.207.25.446.468.709.647a3.19 3.19 0 0 0 1.82.566h.331a3.25 3.25 0 0 0 2.307-.94 3.324 3.324 0 0 0 .695-.996 3.313 3.313 0 0 0-.058-2.875 10.432 10.432 0 0 0-1.177-1.837 12.253 12.253 0 0 0-1.604-1.654 13.58 13.58 0 0 0-.996-.778 13.09 13.09 0 0 0-2.172-1.246c-1.91-.864-4.07-1.297-6.48-1.297-3.373 0-6.242.826-8.607 2.477-.338.237-.665.489-.983.759-2.539 2.157-3.807 4.933-3.807 8.33 0 1.956.425 3.674 1.275 5.153.34.592.748 1.145 1.224 1.66.238.258.492.506.764.745 1.36 1.193 2.989 2.169 4.885 2.93a24.31 24.31 0 0 0 3.704 1.134c5.802 1.3 8.703 3.379 8.703 6.242 0 .572-.094 1.109-.282 1.61-.314.832-.888 1.565-1.722 2.197A7.167 7.167 0 0 1 58 476.084a8.695 8.695 0 0 1-1.976.356 9.747 9.747 0 0 1-1.665-.025c-.042-.004-.083-.01-.124-.013a6.955 6.955 0 0 1-.877-.135c-1.089-.266-2.125-.699-3.044-1.345a18.376 18.376 0 0 1-2.465-2.098 24.23 24.23 0 0 0-2.289-2.054c-.89-.703-1.82-1.284-2.867-1.69-.322.442-.493.83-.7 1.362-.394 1.019-.483 2.083-.365 3.161.192 1.748 1.262 3.321 2.45 4.564a14.276 14.276 0 0 0 2.03 1.749c.718.509 1.48.945 2.283 1.31 2.006.91 4.274 1.363 6.803 1.363 3.507 0 6.51-.86 9.009-2.585.357-.246.703-.51 1.04-.792a12.135 12.135 0 0 0 1.765-1.81c1.514-1.934 2.271-4.231 2.271-6.893 0-1.813-.406-3.44-1.219-4.88" fill="#87c500" fill-rule="evenodd" data-name="Path 706"/><path d="M224.42 455.19c-.047-.048-.1-.09-.148-.136-1.978-1.938-4.569-2.916-7.782-2.916-.496 0-.972.033-1.441.078-2.92.273-6.5 1.392-8.965 3.365a3.239 3.239 0 0 1-4.054 0c-2.467-1.973-6.045-3.092-8.965-3.365-.47-.045-.945-.078-1.44-.078-3.214 0-5.805.978-7.783 2.916-.049.046-.1.088-.149.136-1.994 2.032-2.991 4.716-2.991 8.046v19.23h3.254a3.252 3.252 0 0 0 3.252-3.252v-14.061c0-2.052.59-3.69 1.772-4.91 1.182-1.218 2.78-1.83 4.793-1.83.08 0 .155.008.233.01.078-.002.153-.01.232-.01 2.013 0 3.611.612 4.793 1.83 1.181 1.22 1.773 2.858 1.773 4.91 0 2.065 0 4.13-.002 6.195 0 2.304-.104 4.632-.01 6.934.065 1.582.798 3.074 2.144 3.953a4.81 4.81 0 0 0 1.12.535 4.81 4.81 0 0 0 1.122-.535c1.758-1.147 2.132-3.006 2.132-4.972V465.153c0-2.052.592-3.69 1.773-4.91 1.181-1.218 2.779-1.83 4.793-1.83.078 0 .153.008.232.01.078-.002.153-.01.233-.01 2.013 0 3.61.612 4.793 1.83 1.181 1.22 1.771 2.858 1.771 4.91v14.061a3.252 3.252 0 0 0 3.253 3.252h3.254V463.236c0-3.33-.997-6.014-2.991-8.046" fill="#87c500" fill-rule="evenodd" data-name="Path 707"/><path d="M257.404 467.36c0-4.389-1.488-8.045-4.465-10.965-2.92-2.864-6.947-4.553-11.064-4.287-4.981.32-9.533 3.5-11.886 7.854-1.216 2.251-1.755 4.793-1.755 7.34 0 4.352 1.498 7.988 4.494 10.908 2.406 2.345 5.307 3.731 8.685 4.195.02.003.042.004.063.006.372.05.745.096 1.129.122.45.036.905.058 1.373.058 2.692 0 5.373-.561 7.777-1.79 2.262-1.156 4.56-2.758 5.124-5.395a5.502 5.502 0 0 0 .064-1.97 5.694 5.694 0 0 0-.414-1.415c-1.093.166-1.996.315-2.97.858-1.388.775-2.98 1.847-4.478 2.667a10.41 10.41 0 0 1-4.988 1.261c-2.29 0-4.247-.638-5.869-1.918-1.623-1.278-2.662-2.986-3.12-5.124h22.13c.114-.687.17-1.488.17-2.404m-22.215-2.864v-.002c.237-.647.49-1.293.84-1.888.258-.437.523-.83.796-1.2 1.488-1.88 3.626-3.064 6.01-3.064 3.55 0 6.581 2.448 7.784 5.907.023.083.046.154.069.248h-15.499" fill="#87c500" fill-rule="evenodd" data-name="Path 708"/><path d="M167.887 467.36c0-4.389-1.489-8.045-4.466-10.965-2.92-2.864-6.946-4.553-11.063-4.287-4.982.32-9.533 3.5-11.886 7.854-1.217 2.251-1.756 4.793-1.756 7.34 0 4.352 1.498 7.988 4.494 10.908 2.406 2.345 5.307 3.731 8.685 4.195l.063.006c.372.05.746.096 1.13.122.449.036.904.058 1.372.058 2.693 0 5.374-.561 7.778-1.79 2.261-1.156 4.56-2.758 5.124-5.395a5.504 5.504 0 0 0 .064-1.97 5.693 5.693 0 0 0-.414-1.415c-1.094.166-1.996.315-2.97.858-1.389.775-2.981 1.847-4.478 2.667a10.41 10.41 0 0 1-4.988 1.261c-2.291 0-4.248-.638-5.87-1.918-1.622-1.278-2.662-2.986-3.119-5.124h22.129c.114-.687.17-1.488.17-2.404m-22.214-2.864v-.002c.237-.647.49-1.293.84-1.888.257-.437.522-.83.795-1.2 1.489-1.88 3.627-3.064 6.01-3.064 3.551 0 6.582 2.448 7.784 5.907.024.083.046.154.07.248h-15.5" fill="#87c500" fill-rule="evenodd" data-name="Path 709"/></g></g></g><defs><linearGradient x1="-.831" y1="1.075" x2="-.82" y2="1.075" id="b"><stop stop-color="#45b100" offset="0"/><stop stop-color="#45b100" offset=".466"/><stop stop-color="#87c500" offset=".822"/><stop stop-color="#87c500" offset="1"/></linearGradient><clipPath id="a"><path d="M125.837 17.176c-3.63 2.108-7.527 3.425-11.362 5.076-4.425 1.905-7.575 5.327-9.613 9.653-.802 1.7-1.43 3.49-1.886 5.314-.097.392-.366 1.61-.437 2.142C96.894 27.705 89.84 26.15 89.84 26.15c-8.626 18.491 12.114 30.971 12.114 30.971 1.342-8.328-7.984-19.66-7.984-19.66 6.79 5.023 9.051 16.117 9.051 16.117 2.847-14.774 18.375-27.642 18.375-27.642-25.425 23.741-17.31 46.882-17.31 46.882 0-13.405 10.347-24.807 17.106-30.58a31.855 31.855 0 0 0 3.318-3.282c4.265-4.877 6.76-10.876 7.927-17.207.519-2.812.786-5.674.808-8.534.009-1.014-.329-2.412-.115-3.399-.738 3.405-4.516 5.745-7.293 7.359" data-name="Path 704" transform="translate(-87.74 -9.817)"/></clipPath></defs></svg>