<svg xmlns="http://www.w3.org/2000/svg" width="282.462" height="316.066" viewBox="50.914 51.564 282.462 316.066"><g data-name="Group 699"><g data-name="Group 696"><g data-name="Group 695" transform="translate(111.56 79.372)" clip-path="url(&quot;#a&quot;)"><path d="M0 0h247.25v286.275H0V0z" fill-rule="evenodd" fill="url(&quot;#b&quot;)" transform="rotate(-7.491 3.487 465.41)" data-name="Rectangle 448"/></g></g><g data-name="Group 698"><g data-name="Group 701"><path d="M171.431 331.072a2.779 2.779 0 0 1-.5-.393c-.05-.05-.084-.109-.13-.161-.487-.565-.742-1.306-.742-2.242V311.35a7.802 7.802 0 0 0-7.802-7.801v5.502c-3.111-4.225-7.268-6.338-12.468-6.338-5.015 0-9.182 1.775-12.502 5.328-3.321 3.552-4.98 7.975-4.98 13.27 0 5.292 1.659 9.715 4.98 13.268 3.32 3.553 7.487 5.329 12.502 5.329 2.908 0 5.472-.674 7.714-1.976 1.948-1.132 3.657-2.735 5.103-4.85 1.021 3.993 4.062 5.99 9.125 5.99h1.898c.18-.675.284-1.381.284-2.113a8.207 8.207 0 0 0-2.482-5.887m-27.98-1.856c-2.089-2.112-3.134-4.748-3.134-7.906 0-3.156 1.045-5.792 3.134-7.906 2.09-2.112 4.714-3.17 7.87-3.17 3.111 0 5.712 1.058 7.803 3.17 2.09 2.114 3.133 4.75 3.133 7.906 0 3.158-1.044 5.794-3.133 7.906-2.091 2.114-4.692 3.169-7.803 3.169-3.156 0-5.78-1.055-7.87-3.17" fill="#87c500" fill-rule="evenodd" data-name="Path 741"/><path d="M289.725 306.575c-.058-.06-.121-.11-.18-.166-2.407-2.358-5.559-3.547-9.468-3.547-.604 0-1.182.04-1.753.094-3.552.332-7.906 1.694-10.906 4.094a3.94 3.94 0 0 1-4.932 0c-3-2.4-7.354-3.762-10.906-4.094a18.416 18.416 0 0 0-1.753-.094c-3.91 0-7.061 1.19-9.468 3.547-.059.056-.122.106-.18.166-2.427 2.472-3.64 5.736-3.64 9.788v23.394h3.958a3.957 3.957 0 0 0 3.958-3.957v-17.105c0-2.497.718-4.488 2.155-5.973 1.438-1.483 3.381-2.226 5.83-2.226.097 0 .19.009.284.011.095-.002.186-.011.283-.011 2.449 0 4.393.743 5.83 2.226 1.438 1.485 2.158 3.476 2.158 5.973 0 2.512 0 5.024-.003 7.537 0 2.802-.126 5.634-.012 8.434.08 1.926.97 3.74 2.608 4.81.434.284.894.494 1.364.65.47-.156.93-.366 1.364-.65 2.139-1.396 2.594-3.658 2.594-6.048V318.695c0-2.497.719-4.488 2.156-5.973 1.437-1.483 3.381-2.226 5.83-2.226.097 0 .188.009.283.011.095-.002.186-.011.284-.011 2.449 0 4.393.743 5.83 2.226 1.438 1.485 2.155 3.476 2.155 5.973V335.8a3.957 3.957 0 0 0 3.957 3.957h3.96V316.363c0-4.052-1.213-7.316-3.64-9.788" fill="#87c500" fill-rule="evenodd" data-name="Path 742"/><path d="M329.85 321.38c0-5.34-1.81-9.788-5.432-13.34-3.552-3.485-8.45-5.54-13.46-5.217-6.06.39-11.597 4.258-14.46 9.556-1.479 2.739-2.135 5.83-2.135 8.93 0 5.294 1.822 9.717 5.468 13.27 2.926 2.852 6.456 4.539 10.565 5.103.026.003.052.004.077.008.452.06.907.115 1.373.148.547.043 1.102.07 1.67.07 3.276 0 6.538-.683 9.463-2.178 2.75-1.406 5.547-3.355 6.233-6.563a6.695 6.695 0 0 0 .078-2.396 6.927 6.927 0 0 0-.504-1.722c-1.33.202-2.428.383-3.613 1.044-1.69.943-3.626 2.247-5.448 3.244a12.665 12.665 0 0 1-6.068 1.535c-2.787 0-5.167-.777-7.14-2.333-1.974-1.556-3.239-3.633-3.795-6.235h26.921c.14-.835.208-1.81.208-2.925m-27.026-3.483v-.003c.288-.786.597-1.572 1.023-2.296.312-.532.635-1.011.967-1.461 1.81-2.286 4.412-3.727 7.312-3.727 4.32 0 8.006 2.978 9.469 7.186.028.102.056.188.084.302l-18.855-.001" fill="#87c500" fill-rule="evenodd" data-name="Path 743"/><path d="M220.949 321.38c0-5.34-1.81-9.788-5.432-13.34-3.553-3.485-8.451-5.54-13.46-5.217-6.06.39-11.597 4.258-14.46 9.556-1.48 2.739-2.135 5.83-2.135 8.93 0 5.294 1.822 9.717 5.467 13.27 2.927 2.852 6.456 4.539 10.565 5.103.026.003.052.004.077.008.453.06.907.115 1.374.148.547.043 1.1.07 1.67.07 3.275 0 6.537-.683 9.462-2.178 2.75-1.406 5.547-3.355 6.233-6.563a6.696 6.696 0 0 0 .078-2.396 6.926 6.926 0 0 0-.504-1.722c-1.33.202-2.428.383-3.612 1.044-1.69.943-3.627 2.247-5.448 3.244a12.665 12.665 0 0 1-6.069 1.535c-2.786 0-5.167-.777-7.14-2.333-1.974-1.556-3.238-3.633-3.794-6.235h26.92c.14-.835.208-1.81.208-2.925m-27.026-3.483.001-.003c.288-.786.596-1.572 1.022-2.296.313-.532.635-1.011.967-1.461 1.811-2.286 4.412-3.727 7.312-3.727 4.32 0 8.006 2.978 9.47 7.186.027.102.055.188.083.302l-18.855-.001" fill="#87c500" fill-rule="evenodd" data-name="Path 744"/><path d="M205.59 351.12v8.44c0 1.199-.384 2.166-1.153 2.9-.769.733-1.76 1.101-2.97 1.101-1.003 0-1.856-.266-2.56-.796-.705-.53-1.191-1.255-1.459-2.175h2.01c.185.36.453.647.803.856.348.21.74.315 1.17.315.641 0 1.168-.2 1.581-.602.415-.403.621-.942.621-1.617v-.926c-.677.931-1.626 1.398-2.849 1.398-1.024 0-1.849-.315-2.472-.944s-.935-1.461-.935-2.498v-5.452c1.082 0 1.958.877 1.958 1.958v2.917c0 .64.189 1.156.566 1.546.38.391.883.585 1.513.585.663 0 1.2-.197 1.607-.593.407-.396.612-.92.612-1.573v-2.883c0-1.08.876-1.957 1.957-1.957" fill="gray" fill-rule="evenodd" data-name="Path 745"/><path d="M223.083 360.241c-1.362 0-2.498-.446-3.407-1.337-.909-.89-1.362-2-1.362-3.328 0-1.328.453-2.438 1.362-3.329.91-.891 2.045-1.337 3.407-1.337 1.352 0 2.484.446 3.398 1.337.916.891 1.372 2 1.372 3.329 0 1.327-.456 2.438-1.372 3.328-.914.891-2.046 1.337-3.398 1.337m-1.965-2.682c.531.53 1.185.795 1.965.795s1.434-.264 1.958-.795c.524-.53.786-1.192.786-1.983 0-.792-.262-1.453-.786-1.984-.524-.53-1.177-.794-1.958-.794-.78 0-1.434.264-1.965.794-.53.53-.795 1.192-.795 1.984 0 .791.264 1.453.795 1.983" fill="gray" fill-rule="evenodd" data-name="Path 746"/><path d="M240.681 360.241c-1.362 0-2.497-.446-3.407-1.337-.908-.89-1.362-2-1.362-3.328 0-1.328.454-2.438 1.362-3.329.91-.891 2.045-1.337 3.407-1.337 1.352 0 2.484.446 3.398 1.337.916.891 1.372 2 1.372 3.329 0 1.327-.456 2.438-1.372 3.328-.914.891-2.046 1.337-3.398 1.337m-1.965-2.682c.531.53 1.186.795 1.965.795.781 0 1.434-.264 1.958-.795.524-.53.786-1.192.786-1.983 0-.792-.262-1.453-.786-1.984-.524-.53-1.177-.794-1.958-.794-.78 0-1.434.264-1.965.794-.53.53-.795 1.192-.795 1.984 0 .791.264 1.453.795 1.983" fill="gray" fill-rule="evenodd" data-name="Path 747"/><path d="M252.693 349.146c-.442 0-.789.12-1.04.358-.25.24-.375.575-.375 1.005v.612h.42c.983 0 1.78.798 1.78 1.782h-2.2v7.513c0 .943-.273 1.669-.821 2.176-.548.506-1.34.76-2.376.76h-.612v-1.8h.419c.443 0 .792-.12 1.049-.36.256-.237.385-.573.385-1.003v-7.286h-1.503v-.28c0-.83.673-1.502 1.503-1.502v-.84c0-.943.274-1.668.82-2.174.547-.507 1.34-.76 2.376-.76h.96v1.8h-.785Z" fill="gray" fill-rule="evenodd" data-name="Path 748"/><path d="M257.877 360.241c-1.362 0-2.497-.446-3.406-1.337-.909-.89-1.362-2-1.362-3.328 0-1.328.453-2.438 1.362-3.329.91-.891 2.044-1.337 3.406-1.337 1.352 0 2.484.446 3.399 1.337s1.372 2 1.372 3.329c0 1.327-.457 2.438-1.372 3.328-.915.891-2.047 1.337-3.399 1.337m-1.964-2.682c.53.53 1.185.795 1.964.795.781 0 1.434-.264 1.958-.795.525-.53.787-1.192.787-1.983 0-.792-.262-1.453-.787-1.984-.524-.53-1.177-.794-1.958-.794-.779 0-1.433.264-1.964.794-.531.53-.796 1.192-.796 1.984 0 .791.265 1.453.796 1.983" fill="gray" fill-rule="evenodd" data-name="Path 749"/><path d="M267.642 360.241c-1.362 0-2.498-.446-3.407-1.337-.909-.89-1.362-2-1.362-3.328 0-1.328.453-2.438 1.362-3.329.91-.891 2.045-1.337 3.407-1.337 1.352 0 2.484.446 3.398 1.337.915.891 1.372 2 1.372 3.329 0 1.327-.457 2.438-1.372 3.328-.914.891-2.046 1.337-3.398 1.337m-1.965-2.682c.531.53 1.185.795 1.965.795s1.434-.264 1.958-.795c.524-.53.786-1.192.786-1.983 0-.792-.262-1.453-.786-1.984-.524-.53-1.177-.794-1.958-.794-.78 0-1.434.264-1.965.794-.53.53-.795 1.192-.795 1.984 0 .791.264 1.453.795 1.983" fill="gray" fill-rule="evenodd" data-name="Path 750"/><path d="M297.036 351.12a1.868 1.868 0 0 1 1.818 2.313c-.11.441-.255.922-.438 1.444l-1.905 5.154h-2.026l-2.202-6.604-2.202 6.604h-2.026l-2.49-6.825a1.553 1.553 0 0 1 1.459-2.086l2.096 6.465 2.185-6.465h2.008l2.186 6.483 1.082-3.181c.233-.756.39-1.386.472-1.886a3.83 3.83 0 0 0-.017-1.416" fill="gray" fill-rule="evenodd" data-name="Path 751"/><path d="M320.084 352.902h-.419v4.071c0 .396.116.705.348.927.234.221.553.332.963.332h.89v1.8h-1.17c-.967 0-1.708-.236-2.22-.709-.513-.472-.768-1.15-.768-2.035v-4.386c-.83 0-1.502-.672-1.502-1.502v-.28h.907a.7.7 0 0 0 .7-.7v-1.712c1.023 0 1.852.83 1.852 1.853v.56h2.2c0 .984-.797 1.781-1.781 1.781" fill="gray" fill-rule="evenodd" data-name="Path 752"/><path d="M234.13 352.902h-.418v4.071c0 .396.115.705.347.927.234.221.554.332.963.332h.89v1.8h-1.17c-.967 0-1.707-.236-2.22-.709-.513-.472-.768-1.15-.768-2.035v-4.386c-.829 0-1.502-.672-1.502-1.502v-.28h.907a.7.7 0 0 0 .7-.7v-1.712c1.023 0 1.853.83 1.853 1.853v.56h2.2c0 .984-.798 1.781-1.782 1.781" fill="gray" fill-rule="evenodd" data-name="Path 753"/><path d="M329.85 356.07c0-1.2-.406-2.202-1.221-3a4.105 4.105 0 0 0-1.628-.99c-.846-.268-1.74-.289-2.561.074-.496.22-.964.536-1.352.916-.814.798-1.222 1.794-1.222 2.985 0 1.191.41 2.186 1.23 2.986a4.11 4.11 0 0 0 2.378 1.147v.001l.017.002a5.205 5.205 0 0 0 .684.05c.942 0 1.78-.238 2.516-.714a4.542 4.542 0 0 0 .33-.235c.054-.043.105-.086.155-.132.038-.033.078-.063.114-.096a.853.853 0 0 0 .178-.235l.02-.025c.203-.314.293-.699.237-1.07a1.555 1.555 0 0 0-.114-.387l-.355.054c-.336.05-.674.153-.956.348l-.017.015c-.06.039-.116.083-.167.135-.025.026-.053.05-.08.076a1.963 1.963 0 0 1-.088.079c-.02.018-.043.035-.065.052a2.515 2.515 0 0 1-.406.255l-.024.014a2.776 2.776 0 0 1-1.246.282c-.627 0-1.163-.175-1.606-.525-.444-.35-.73-.818-.855-1.403h6.058c.032-.188.047-.407.047-.658m-6.081-.784c.065-.177.134-.354.23-.518.07-.119.143-.226.217-.328.408-.514.993-.839 1.646-.839.972 0 1.801.67 2.13 1.618l.02.067h-4.243" fill="gray" fill-rule="evenodd" data-name="Path 754"/><path d="M196.32 358.027a.72.72 0 0 1-.126-.098c-.013-.013-.021-.028-.033-.041-.121-.142-.186-.328-.186-.563v-4.25a1.96 1.96 0 0 0-1.96-1.959v1.381c-.78-1.06-1.824-1.591-3.13-1.591-1.259 0-2.306.446-3.14 1.338-.833.892-1.25 2.003-1.25 3.332 0 1.33.417 2.44 1.25 3.332.834.892 1.881 1.338 3.14 1.338.73 0 1.374-.17 1.937-.496a3.97 3.97 0 0 0 1.282-1.218c.256 1.003 1.02 1.504 2.29 1.504h.477a2.061 2.061 0 0 0-.552-2.009m-7.025-.466c-.525-.53-.787-1.192-.787-1.985 0-.793.262-1.455.787-1.985.524-.531 1.183-.796 1.976-.796.78 0 1.434.265 1.959.796.525.53.787 1.192.787 1.985 0 .793-.262 1.455-.787 1.985-.525.531-1.178.796-1.96.796-.792 0-1.451-.265-1.975-.796" fill="gray" fill-rule="evenodd" data-name="Path 755"/><path d="M308.9 358.027a.719.719 0 0 1-.125-.098c-.013-.013-.021-.028-.033-.041-.121-.142-.186-.328-.186-.563v-4.25a1.96 1.96 0 0 0-1.96-1.959v1.381c-.78-1.06-1.824-1.591-3.13-1.591-1.259 0-2.306.446-3.14 1.338-.833.892-1.25 2.003-1.25 3.332 0 1.33.417 2.44 1.25 3.332.834.892 1.881 1.338 3.14 1.338.73 0 1.374-.17 1.937-.496a3.97 3.97 0 0 0 1.282-1.218c.256 1.003 1.02 1.504 2.29 1.504h.477a2.061 2.061 0 0 0-.552-2.009m-7.025-.466c-.525-.53-.787-1.192-.787-1.985 0-.793.262-1.455.787-1.985.524-.531 1.183-.796 1.976-.796.781 0 1.435.265 1.959.796.525.53.787 1.192.787 1.985 0 .793-.262 1.455-.787 1.985-.524.531-1.178.796-1.96.796-.792 0-1.451-.265-1.975-.796" fill="gray" fill-rule="evenodd" data-name="Path 756"/><path d="M218.115 358.343c-.097-.14-.214-.24-.333-.348a4.498 4.498 0 0 1-.093-.087c-.15-.145-.194-.388-.194-.585v-2.901c0-1.06-.322-1.91-.969-2.55a3.155 3.155 0 0 0-.98-.649 3.917 3.917 0 0 0-1.58-.313c-.277 0-.534.033-.784.078-.919.163-1.663.613-2.222 1.372v-1.24a1.95 1.95 0 0 0-1.845 1.334c-.067.197-.111.403-.111.623v6.954h1.956v-4.926c0-.688.215-1.244.647-1.67.378-.371.867-.57 1.456-.617.085-.007.166-.02.256-.02.675 0 1.216.207 1.617.62.4.414.602.964.602 1.652v2.689c0 .289.039.54.096.773-.03.04.098.301.118.348a1.763 1.763 0 0 0 .67.788c.462.298 1.116.391 1.656.365.11-.006.216-.002.325-.002.044-.168.071-.344.071-.525 0-.408-.124-.824-.36-1.163" fill="gray" fill-rule="evenodd" data-name="Path 757"/><path d="M282.763 358.348c-.097-.14-.214-.24-.333-.348l-.094-.087c-.15-.145-.193-.388-.193-.585v-7.918a1.958 1.958 0 0 0-1.959-1.958v5.048c-.779-1.06-1.822-1.59-3.126-1.59-1.258 0-2.305.446-3.136 1.337-.834.891-1.25 2-1.25 3.329 0 1.327.416 2.438 1.25 3.328.83.891 1.878 1.337 3.136 1.337 1.362 0 2.434-.571 3.215-1.712.002.009.007.015.01.024-.011.06.098.288.117.332.025.056.06.109.091.163.017.03.031.061.048.089.013.019.021.04.035.06.131.19.3.35.495.475.462.299 1.117.392 1.657.366.11-.006.215-.002.325-.002a2.057 2.057 0 0 0-.288-1.688m-3.364-.79c-.524.532-1.177.796-1.956.796-.794 0-1.451-.264-1.975-.795-.525-.53-.787-1.192-.787-1.983 0-.792.262-1.453.787-1.984.524-.53 1.181-.794 1.975-.794.78 0 1.432.264 1.956.794s.785 1.192.785 1.984c0 .791-.261 1.453-.785 1.983" fill="gray" fill-rule="evenodd" data-name="Path 758"/><path d="M99.616 310.807c.395.7.87 1.365 1.424 1.993 1.937 2.2 4.844 3.955 8.72 5.265 1.106.374 2.293.713 3.558 1.015a34.72 34.72 0 0 1 2.319.602c2.524.757 4.417 1.7 5.68 2.83.36.324.67.661.926 1.015.645.883.966 1.862.966 2.936 0 .202-.028.392-.047.585a5.286 5.286 0 0 1-.242.887c-.38 1.013-1.08 1.905-2.095 2.674a8.72 8.72 0 0 1-2.716 1.383c-.749.231-1.55.375-2.403.434-.167.01-.34.011-.511.016-.12.004-.237.012-.36.012-.395 0-.78-.022-1.155-.058l-.152-.017a8.461 8.461 0 0 1-1.066-.164c-1.324-.323-2.585-.85-3.703-1.636a22.356 22.356 0 0 1-2.998-2.552 29.5 29.5 0 0 0-2.428-2.208c-.119-.097-.235-.193-.357-.29-1.082-.856-2.214-1.563-3.49-2.056-.39.536-.598 1.008-.85 1.657-.48 1.238-.588 2.533-.443 3.845.233 2.126 1.534 4.04 2.978 5.552.37.389.77.765 1.196 1.131a16.806 16.806 0 0 0 4.052 2.59c2.442 1.106 5.2 1.659 8.276 1.659.102 0 .2-.008.3-.01.138.003.274.01.413.01 4.105 0 7.595-1.005 10.471-3.014.411-.288.81-.594 1.197-.923 2.338-1.987 3.786-4.408 4.354-7.26.182-.914.277-1.87.277-2.873 0-2.381-.517-4.47-1.551-6.27-.414-.72-.91-1.393-1.49-2.02-.288-.314-.599-.615-.93-.906-1.654-1.45-3.635-2.639-5.942-3.564a29.574 29.574 0 0 0-4.506-1.38c-7.058-1.58-10.587-4.11-10.587-7.593a5.844 5.844 0 0 1 .343-1.958c.381-1.014 1.08-1.906 2.095-2.674a8.72 8.72 0 0 1 2.717-1.384c.748-.23 1.55-.375 2.403-.433.166-.012.34-.013.51-.017.12-.003.237-.012.36-.012.396 0 .78.022 1.155.059l.152.016c.363.04.723.081 1.066.164 1.325.323 2.586.85 3.704 1.636a22.355 22.355 0 0 1 2.998 2.552c.832.841 1.59 1.527 2.427 2.208.12.097.234.194.358.291 1.082.856 2.213 1.562 3.49 2.056.39-.537.598-1.009.85-1.657.479-1.239.587-2.533.443-3.845-.234-2.127-1.535-4.04-2.978-5.553-.371-.388-.77-.765-1.197-1.131a16.806 16.806 0 0 0-4.052-2.589c-2.441-1.107-5.2-1.66-8.276-1.66-.102 0-.2.009-.3.01-.138-.003-.274-.01-.413-.01-4.104 0-7.594 1.006-10.471 3.015-.41.287-.81.594-1.196.922-2.338 1.987-3.787 4.408-4.355 7.259-.266 1.104-.4 2.27-.4 3.5 0 2.206.494 4.185 1.482 5.938" fill="#87c500" fill-rule="evenodd" data-name="Path 759"/><path d="M178.085 352.94c.1.177.219.343.357.5.486.553 1.216.993 2.187 1.321.278.094.576.18.893.255.207.046.401.097.582.151.634.19 1.108.427 1.425.71.09.081.168.165.232.255.162.221.243.466.243.736 0 .05-.008.098-.013.147a1.34 1.34 0 0 1-.06.222c-.096.254-.27.478-.526.67-.203.155-.43.27-.68.348a2.646 2.646 0 0 1-.603.109l-.129.004-.09.002c-.099 0-.196-.005-.29-.014l-.038-.004c-.091-.01-.181-.02-.267-.042a2.735 2.735 0 0 1-.93-.41 5.62 5.62 0 0 1-.751-.64 7.48 7.48 0 0 0-.609-.553c-.03-.025-.059-.05-.09-.074a3.39 3.39 0 0 0-.875-.516c-.098.135-.15.254-.213.416a2.02 2.02 0 0 0-.111.965c.058.533.384 1.013.747 1.393.092.097.192.191.3.283a4.216 4.216 0 0 0 1.016.65c.612.278 1.304.416 2.076.416l.075-.002.104.002c1.029 0 1.904-.252 2.626-.756.103-.072.203-.15.3-.232.587-.498.95-1.105 1.092-1.82.046-.23.07-.47.07-.721 0-.598-.13-1.121-.39-1.573a2.825 2.825 0 0 0-.606-.734 5.144 5.144 0 0 0-1.49-.894 7.457 7.457 0 0 0-1.13-.346c-1.771-.397-2.656-1.031-2.656-1.905a1.425 1.425 0 0 1 .085-.49c.096-.255.271-.48.526-.672.204-.154.431-.27.681-.346.188-.059.389-.095.603-.11l.128-.004.09-.002c.1 0 .196.005.29.014l.038.004c.092.01.182.02.268.042.332.08.648.213.93.41.268.188.52.407.751.64.208.21.398.383.608.554l.09.073c.272.214.556.392.876.516.098-.135.15-.254.213-.416.12-.311.148-.635.111-.965-.058-.533-.384-1.013-.747-1.392a4.067 4.067 0 0 0-.3-.284 4.25 4.25 0 0 0-1.016-.65c-.613-.278-1.305-.416-2.076-.416l-.075.003c-.035-.001-.069-.003-.104-.003-1.03 0-1.905.252-2.626.756-.104.073-.204.15-.3.232-.587.498-.95 1.105-1.093 1.82-.067.277-.1.57-.1.879 0 .553.123 1.05.371 1.489" fill="gray" fill-rule="evenodd" data-name="Path 760"/><path d="M309.916 354.755c.077.136.168.265.276.386.375.426.938.766 1.688 1.02.214.072.444.138.69.196.16.036.308.075.448.117.489.147.856.33 1.1.548.07.063.13.128.18.196.124.171.187.361.187.569 0 .04-.005.076-.01.113a.984.984 0 0 1-.046.172c-.074.197-.21.37-.406.518-.158.119-.333.208-.526.268a2.1 2.1 0 0 1-.465.084c-.033.002-.066.002-.1.003l-.069.002a2.454 2.454 0 0 1-.253-.014c-.07-.008-.14-.016-.207-.032a2.12 2.12 0 0 1-.717-.316 4.386 4.386 0 0 1-.58-.495 5.61 5.61 0 0 0-.54-.484 2.57 2.57 0 0 0-.675-.398 1.574 1.574 0 0 0-.25 1.065c.044.413.297.783.576 1.076a3.23 3.23 0 0 0 .478.412c.17.12.349.222.538.308a3.847 3.847 0 0 0 1.603.322l.058-.002.08.002c.795 0 1.47-.195 2.027-.584.08-.056.157-.115.232-.179.454-.385.734-.853.844-1.406.035-.177.053-.362.053-.556 0-.46-.1-.866-.3-1.214a2.131 2.131 0 0 0-.468-.566 3.94 3.94 0 0 0-1.152-.69 5.704 5.704 0 0 0-.872-.268c-1.367-.306-2.05-.796-2.05-1.47a1.123 1.123 0 0 1 .067-.38c.073-.197.208-.37.405-.517.157-.12.333-.209.526-.269.145-.044.3-.072.466-.083.031-.003.066-.003.098-.004l.07-.002c.077 0 .151.004.223.012l.03.002c.07.008.14.016.206.033a2.1 2.1 0 0 1 .718.316c.207.145.403.315.58.494.161.163.308.296.47.427l.07.057c.209.166.428.303.676.399.075-.105.115-.196.164-.321.093-.24.114-.491.086-.746-.045-.411-.297-.781-.577-1.075a3.06 3.06 0 0 0-.232-.218 3.157 3.157 0 0 0-.784-.502c-.473-.214-1.007-.321-1.603-.321-.02 0-.039 0-.058.002l-.08-.002c-.795 0-1.471.194-2.028.584-.079.055-.157.115-.232.178a2.429 2.429 0 0 0-.842 1.406c-.052.214-.079.44-.079.678 0 .427.096.81.288 1.15" fill="gray" fill-rule="evenodd" data-name="Path 761"/></g></g></g><defs><linearGradient x1="-.831" y1="1.075" x2="-.82" y2="1.075" id="b"><stop stop-color="#45b100" offset="0"/><stop stop-color="#45b100" offset=".466"/><stop stop-color="#87c500" offset=".822"/><stop stop-color="#87c500" offset="1"/></linearGradient><clipPath id="a"><path d="M245.233 40.235c-15.01 8.716-31.119 14.163-46.973 20.986-18.29 7.872-31.31 22.02-39.738 39.906-3.32 7.033-5.917 14.429-7.798 21.969-.399 1.62-1.515 6.654-1.804 8.854-23.337-48.184-52.499-54.606-52.499-54.606-35.662 76.437 50.077 128.032 50.077 128.032 5.546-34.427-33.008-81.277-33.008-81.277 28.071 20.768 37.421 66.63 37.421 66.63 11.767-61.073 75.964-114.271 75.964-114.271-105.114 98.145-71.562 193.81-71.562 193.81 0-55.417 42.775-102.554 70.715-126.418 4.895-4.18 9.49-8.719 13.718-13.568 17.627-20.162 27.952-44.961 32.773-71.137a203.495 203.495 0 0 0 3.337-35.28c.034-4.189-1.357-9.967-.473-14.049-3.051 14.075-18.67 23.751-30.15 30.419" data-name="Path 740" transform="translate(-87.74 -9.816)"/></clipPath></defs></svg>