<svg xmlns="http://www.w3.org/2000/svg" width="22.388" height="14.472" viewBox="343.088 567.264 22.388 14.472"><g data-name="view"><path d="M350.835 574.402a3.447 3.447 0 1 1 0 .1z" fill-rule="evenodd" data-name="Ellipse 79"/><path d="M365.133 573.547c-2.65-3.201-6.66-6.283-10.85-6.283-4.193 0-8.204 3.084-10.852 6.283a1.499 1.499 0 0 0 0 1.91c.666.804 2.062 2.357 3.925 3.713 4.694 3.418 9.148 3.425 13.852 0 1.864-1.356 3.26-2.909 3.925-3.713a1.499 1.499 0 0 0 0-1.91Zm-10.85-3.87a4.83 4.83 0 0 1 4.824 4.825 4.83 4.83 0 0 1-4.825 4.825 4.83 4.83 0 0 1-4.825-4.825 4.83 4.83 0 0 1 4.825-4.825Z" fill-rule="evenodd" data-name="Path 566"/></g></svg>